<?xml version="1.0" encoding="utf-8"?>
<!-- Svg Vector Icons : http://www.onlinewebfonts.com/icon -->
<!DOCTYPE svg PUBLIC "-//W3C//DTD SVG 1.1//EN" "http://www.w3.org/Graphics/SVG/1.1/DTD/svg11.dtd">
<svg version="1.1" xmlns="http://www.w3.org/2000/svg" xmlns:xlink="http://www.w3.org/1999/xlink" x="0px" y="0px" viewBox="0 0 1000 1000" enable-background="new 0 0 1000 1000" xml:space="preserve">
<metadata> Svg Vector Icons : http://www.onlinewebfonts.com/icon </metadata>
<g><path d="M500,10C229.4,10,10,229.4,10,500c0,270.6,219.4,490,490,490c270.6,0,490-219.4,490-490C990,229.4,770.6,10,500,10z M500,950.8C251.4,950.8,49.2,748.6,49.2,500C49.2,251.4,251.4,49.2,500,49.2c248.6,0,450.8,202.2,450.8,450.8C950.8,748.6,748.6,950.8,500,950.8z"/><path d="M631.3,492.3L461.1,323l-27.6,27.8l156.2,155.4l-143.3,143l27.7,27.8L645,506.4l-13.9-13.9L631.3,492.3z"/></g>
</svg>